# generated from PmQm by Jehee Lee
:FULLY-SPECIFIED
:DEGREES
477
root -21.96736765 38.41137577 -12.71513478 -179.0894167 -63.19286752 -179.5598241
RightUpLeg 5.752785589 -0.6911573128 -8.021927928
RightLeg 27.35387767 0 0
RightFoot -5.272188281 11.20438912 12.42528169
RightToes 2.32829e-010 -1.59028e-015 9.93923e-017
Spine -12.66719625 5.540481784 10.99942851
Spine1 15.9615952 7.528856474 -10.68229244
HEad -9.20112049 -5.217998903 2.316593388
LeftShoulder1 9.93923e-017 0 1.22299e-017
LeftArm -11.70516909 52.82736869 -67.28620872
LeftForeArm -5.529452188 -3.703602121 -5.188081799
LeftHand 1.02661 7.3694 -4.41701
RightShoulder 1.98785e-016 -4.96962e-017 1.55301e-017
RightArm 25.11560053 -27.33790153 85.93115987
RightForeArm -48.41120236 24.4836114 -22.94891294
RightHand 1.19146 -10.4042 -6.50393
LeftUpLeg -26.64151935 -3.230513433 -1.314291655
LeftLeg 6.758422121 0 0
LeftFoot 7.025515167 0.8322132253 -3.00356262
LeftToes 8.82235e-011 9.04645e-011 1.87288e-011
478
root -23.16092574 38.40759866 -13.6163463 -175.2139303 -62.01376814 176.1855349
RightUpLeg 1.683733534 -1.324654447 -12.64912333
RightLeg 37.19496989 0 0
RightFoot 6.755869481 13.49158399 10.00117177
RightToes 2.32829e-010 -1.59028e-015 9.93923e-017
Spine -10.80497685 3.879197811 6.711755758
Spine1 14.21047052 5.898573178 -10.27596106
HEad -9.356503806 -4.691262502 2.837931317
LeftShoulder1 9.93923e-017 0 1.22299e-017
LeftArm -11.25042111 49.76714594 -68.94589826
LeftForeArm -6.340785174 -3.82537775 -5.561190529
LeftHand 1.0097 7.20765 -5.05441
RightShoulder 1.98785e-016 -4.96962e-017 1.55301e-017
RightArm 28.6562778 -30.59627422 88.18877302
RightForeArm -51.86194915 22.11632745 -20.82756746
RightHand 1.16096 -10.3732 -5.78301
LeftUpLeg -26.68874255 -2.754717076 -1.689762599
LeftLeg 13.47890623 0 0
LeftFoot 3.009497538 0.1106346462 -3.019881928
LeftToes 8.82235e-011 9.04645e-011 1.87288e-011
479
root -24.2566199 38.40860858 -14.41578119 -172.6514641 -60.29203978 173.2148042
RightUpLeg -3.29463484 -0.9453752216 -14.37074164
RightLeg 46.81985988 -3.046757999 -5.708681886
RightFoot 16.68224892 10.83526301 13.05189306
RightToes 2.32829e-010 -1.59028e-015 9.93923e-017
Spine -8.615737823 2.739157942 2.825787768
Spine1 13.05120699 4.637527439 -9.763503017
HEad -10.24917151 -4.023258346 2.809232198
LeftShoulder1 9.93923e-017 0 1.22299e-017
LeftArm -9.244655508 44.94620471 -71.2246392
LeftForeArm -7.754399472 -4.268921786 -6.17987125
LeftHand 0.992905 7.03592 -5.03757
RightShoulder 1.98785e-016 -4.96962e-017 1.55301e-017
RightArm 26.74857932 -33.49647376 89.80611261
RightForeArm -50.5587284 20.74354785 -16.03337121
RightHand 1.09086 -10.2491 -4.27313
LeftUpLeg -26.04238695 -2.509844317 -1.500577561
LeftLeg 19.31913109 0 0
LeftFoot -1.2442102 -0.3163509076 -3.270743981
LeftToes 8.82235e-011 9.04645e-011 1.87288e-011
480
root -25.37069457 38.53700323 -15.19268056 -171.8874997 -57.77891203 172.090524
RightUpLeg -8.341827522 0.119460983 -14.50234108
RightLeg 54.48405806 -4.396340694 -11.12230721
RightFoot 20.2830424 8.330873743 15.44231915
RightToes 2.32829e-010 -1.59028e-015 9.93923e-017
Spine -7.156561866 2.192774118 -0.3495186524
Spine1 12.58159011 3.779607961 -8.859403652
HEad -10.95362685 -3.058958446 2.324656645
LeftShoulder1 9.93923e-017 0 1.22299e-017
LeftArm -6.599681884 39.93016714 -73.60455984
LeftForeArm -10.45827374 -5.325537262 -6.581468644
LeftHand 0.970123 6.82072 -4.29005
RightShoulder 1.98785e-016 -4.96962e-017 1.55301e-017
RightArm 20.68931634 -36.20283342 90.30526425
RightForeArm -43.36041459 19.73561349 -9.223474288
RightHand 1.03939 -10.2002 -2.94224
LeftUpLeg -24.15557469 -2.434631374 -0.8123624026
LeftLeg 22.76624551 0 0
LeftFoot -3.976835207 0.4971346563 -4.188229565
LeftToes 8.82235e-011 9.04645e-011 1.87288e-011
481
root -26.5858188 38.80596671 -16.01800338 -172.7095881 -55.68707762 172.7056741
RightUpLeg -12.4646024 0.4786643713 -13.08532413
RightLeg 58.67353025 -3.646090596 -13.88031166
RightFoot 17.82568104 6.920544042 15.73022582
RightToes 2.32829e-010 -1.59028e-015 9.93923e-017
Spine -6.580303668 1.426715935 -2.500291036
Spine1 12.02732856 2.53177302 -7.099113957
HEad -10.67315642 -1.707370066 1.845580681
LeftShoulder1 9.93923e-017 0 1.22299e-017
LeftArm -3.809392417 36.06141893 -75.4896582
LeftForeArm -14.22375103 -8.752497789 -5.514277912
LeftHand 0.942205 6.57551 -3.70458
RightShoulder 1.98785e-016 -4.96962e-017 1.55301e-017
RightArm 18.87628383 -39.36248856 90.13882366
RightForeArm -38.50217185 18.41094486 -4.684044826
RightHand 1.03827 -10.3208 -2.49664
LeftUpLeg -21.00271478 -2.157514729 0.1873064555
LeftLeg 23.65089088 0 0
LeftFoot -5.70544326 1.15208913 -5.416675993
LeftToes 8.82235e-011 9.04645e-011 1.87288e-011
